<svg width="424" height="344" viewBox="0 0 424 344" fill="none" xmlns="http://www.w3.org/2000/svg">
<g clip-path="url(#clip0_1_219)">
<path d="M398.903 94.9452C394.934 88.9673 390.529 83.1978 385.716 77.6691C382.342 73.7903 378.778 70.0409 375.023 66.421H375.013C368.218 59.8678 360.828 53.7616 352.909 48.1565C351.288 47.0074 349.645 45.8818 347.981 44.7798C332.955 34.8005 316.291 26.6723 298.5 20.6435L298.658 42.3467L300.36 289.751H152.805L144.506 42.8135L145.124 21.4569C72.7823 46.8561 21.9874 106.574 21.9874 176.2C21.9739 190.571 24.1702 204.884 28.5224 218.788C30.3607 224.666 32.5863 230.454 35.189 236.127C36.1286 238.186 37.1198 240.227 38.1628 242.249C38.6655 243.234 39.1776 244.21 39.7085 245.183C40.3897 246.454 41.0991 247.72 41.8273 248.971C42.391 249.956 42.9705 250.934 43.5656 251.905C44.3314 253.18 45.1222 254.444 45.9381 255.698C46.5676 256.682 47.216 257.659 47.8737 258.631C58.4849 274.3 72.0352 288.448 88.0092 300.537C92.5616 303.984 97.2988 307.253 102.221 310.342C137.047 332.188 179.431 344 222.994 344C266.556 344 308.94 332.188 343.767 310.342C346.444 308.663 349.068 306.929 351.636 305.138C353.341 303.953 355.018 302.746 356.667 301.518C357.104 301.192 357.541 300.867 357.974 300.537C372.701 289.392 385.375 276.492 395.586 262.255C399.336 257.035 402.736 251.646 405.772 246.112C406.575 244.653 407.353 243.181 408.106 241.696C411.574 234.887 414.49 227.892 416.835 220.757C417.197 219.655 417.546 218.549 417.883 217.439V217.435C417.939 217.243 418.001 217.047 418.057 216.855C418.405 215.686 418.738 214.509 419.058 213.333V213.329C420.091 209.536 420.963 205.698 421.674 201.814C421.764 201.316 421.853 200.818 421.938 200.32C421.97 200.139 422.003 199.959 422.027 199.779V199.775C422.534 196.774 422.946 193.752 423.262 190.707C423.751 185.926 423.997 181.091 424 176.2C424.053 147.774 415.415 119.806 398.903 94.9452Z" fill="#F2F2F2"/>
<path d="M379.163 277.491C391.06 264.072 395.636 245.169 386.381 230.369C377.702 247.016 362.248 260.564 342.755 268.615C335.224 271.698 326.463 274.471 322.977 280.84C320.808 284.803 321.221 289.482 322.965 293.588C324.709 297.694 327.674 301.348 330.609 304.951L330.763 306.031C349.238 299.637 367.265 290.911 379.163 277.491Z" fill="#E6E6E6"/>
<path d="M385.986 230.487C385.453 244.299 379.721 257.62 369.602 268.557C367.474 270.944 364.909 273.036 362 274.756C359.102 276.355 355.744 277.277 352.275 277.426C349.044 277.619 345.712 277.504 342.593 278.35C341.004 278.803 339.548 279.531 338.32 280.486C337.092 281.441 336.119 282.603 335.467 283.894C333.74 287.076 333.486 290.586 333.38 294.025C333.262 297.844 333.213 301.813 331.055 305.284C330.794 305.705 331.591 306.019 331.852 305.599C335.606 299.559 333.168 292.495 335.406 286.146C336.45 283.183 338.57 280.465 342.113 279.277C345.211 278.239 348.648 278.355 351.921 278.183C355.308 278.079 358.613 277.284 361.547 275.868C364.551 274.277 367.209 272.271 369.407 269.936C374.455 264.745 378.494 258.923 381.376 252.685C384.713 245.58 386.569 238.051 386.865 230.424C386.883 229.951 386.004 230.018 385.986 230.487Z" fill="white"/>
<path d="M373.109 265.195C375.537 266.363 378.384 266.773 381.141 266.35C383.898 265.928 386.385 264.701 388.158 262.889C388.515 262.522 387.848 262.041 387.49 262.409C385.843 264.099 383.526 265.241 380.958 265.63C378.39 266.019 375.739 265.629 373.486 264.53C372.996 264.292 372.621 264.958 373.109 265.195Z" fill="white"/>
<path d="M353.929 277.508C352.392 272.9 352.991 267.978 355.608 263.723C355.867 263.302 355.07 262.987 354.811 263.408C352.098 267.84 351.486 272.964 353.099 277.756C353.253 278.212 354.082 277.962 353.929 277.508Z" fill="white"/>
<path d="M383.545 245.614C382.493 245.326 381.542 244.823 380.78 244.153C380.017 243.482 379.466 242.663 379.176 241.771C379.029 241.313 378.2 241.564 378.346 242.019C378.672 243.003 379.282 243.907 380.123 244.649C380.963 245.392 382.009 245.952 383.168 246.279C383.274 246.318 383.394 246.321 383.503 246.288C383.612 246.256 383.702 246.19 383.755 246.104C383.804 246.016 383.81 245.915 383.771 245.823C383.731 245.731 383.65 245.656 383.545 245.614Z" fill="white"/>
<path d="M320.154 218.591C320.236 218.879 320.318 219.167 320.395 219.46C321.475 223.339 322.175 227.285 322.489 231.259C322.519 231.566 322.544 231.878 322.564 232.185C323.198 241.766 321.696 251.362 318.134 260.485C316.712 264.114 314.962 267.648 312.899 271.055C310.048 275.761 306.509 280.674 305.711 285.742C305.621 286.27 305.57 286.803 305.558 287.336L329.173 306.105C329.252 306.125 329.327 306.15 329.407 306.17L330.308 306.956C330.429 306.786 330.551 306.608 330.672 306.438C330.743 306.34 330.808 306.238 330.879 306.14C330.924 306.073 330.97 306.006 331.015 305.948C331.031 305.926 331.046 305.904 331.056 305.886C331.101 305.828 331.136 305.77 331.177 305.716C331.858 304.723 332.532 303.724 333.199 302.719C333.204 302.714 333.204 302.714 333.204 302.706C338.261 295.038 342.596 286.95 345.323 278.57C345.404 278.318 345.492 278.062 345.563 277.801C346.767 274.018 347.598 270.159 348.049 266.263C348.288 264.129 348.397 261.986 348.376 259.843C348.309 254.305 347.2 248.811 345.088 243.561C340.875 233.096 332.701 223.873 321.049 218.959C320.75 218.833 320.457 218.712 320.154 218.591Z" fill="#E6E6E6"/>
<path d="M319.922 218.883C329.457 230.179 334.487 243.696 334.296 257.514C334.318 260.489 333.779 263.449 332.697 266.284C331.536 269.017 329.52 271.441 326.857 273.304C324.417 275.082 321.674 276.666 319.793 278.908C318.851 280.068 318.214 281.381 317.922 282.762C317.631 284.142 317.692 285.558 318.102 286.917C319.018 290.325 321.346 293.255 323.743 296.055C326.403 299.163 329.226 302.356 330.007 306.213C330.101 306.68 330.964 306.53 330.87 306.064C329.511 299.354 322.47 294.94 319.677 288.745C318.374 285.855 318.106 282.619 320.079 279.89C321.804 277.504 324.631 275.869 327.121 274.086C329.75 272.301 331.816 270.005 333.137 267.4C334.388 264.62 335.064 261.683 335.135 258.714C335.421 252.031 334.448 245.353 332.25 238.923C329.79 231.573 325.842 224.629 320.577 218.39C320.251 218.004 319.598 218.499 319.922 218.883Z" fill="white"/>
<path d="M334.671 253.068C337.453 252.78 340.021 251.676 341.918 249.953C343.814 248.23 344.915 246 345.024 243.662C345.044 243.189 344.165 243.141 344.144 243.615C344.048 245.792 343.022 247.869 341.252 249.47C339.482 251.071 337.085 252.092 334.493 252.347C333.929 252.403 334.111 253.123 334.671 253.068Z" fill="white"/>
<path d="M328.237 272.538C323.687 269.632 320.615 265.401 319.636 260.688C319.539 260.221 318.676 260.371 318.773 260.837C319.803 265.74 323.01 270.138 327.753 273.153C328.206 273.44 328.687 272.824 328.237 272.538Z" fill="white"/>
<path d="M328.882 232.188C327.833 232.486 326.713 232.563 325.62 232.411C324.527 232.258 323.497 231.882 322.622 231.315C322.174 231.023 321.693 231.64 322.138 231.93C323.108 232.552 324.247 232.967 325.453 233.138C326.66 233.308 327.899 233.229 329.06 232.908C329.173 232.886 329.271 232.828 329.335 232.747C329.398 232.667 329.423 232.569 329.403 232.473C329.378 232.378 329.31 232.295 329.213 232.241C329.115 232.188 328.996 232.168 328.882 232.188Z" fill="white"/>
<path d="M9.38375 202.33C-1.16786 188.148 -3.88813 168.997 6.77677 154.874C13.8069 172.055 27.8903 186.606 46.5352 195.953C53.7414 199.536 62.2033 202.895 65.0577 209.479C66.8339 213.576 65.9667 218.212 63.8291 222.186C61.6912 226.161 58.3796 229.601 55.104 232.993L54.8448 234.059C37.0541 226.433 19.9354 216.513 9.38375 202.33Z" fill="#E6E6E6"/>
<path d="M7.15867 155.019C6.3454 168.821 10.7624 182.487 19.7823 194.074C21.671 196.597 24.0244 198.856 26.7558 200.768C29.4886 202.558 32.7458 203.705 36.189 204.089C39.3908 204.501 42.7231 204.612 45.7492 205.667C47.2887 206.226 48.6692 207.05 49.8002 208.086C50.9312 209.121 51.7873 210.345 52.3122 211.676C53.7234 214.964 53.6351 218.48 53.4057 221.915C53.1509 225.73 52.8139 229.688 54.6267 233.295C54.8463 233.732 54.0212 233.991 53.8019 233.555C50.648 227.28 53.7654 220.405 52.1536 213.925C51.4014 210.901 49.5532 208.048 46.1372 206.624C43.1501 205.379 39.7139 205.261 36.4677 204.867C33.1021 204.534 29.8856 203.518 27.0991 201.907C24.26 200.118 21.8063 197.938 19.8431 195.462C15.3168 189.945 11.8577 183.869 9.59242 177.455C6.95848 170.148 5.84143 162.518 6.28958 154.895C6.31754 154.424 7.18646 154.55 7.15867 155.019Z" fill="white"/>
<path d="M16.6149 190.486C14.0806 191.485 11.2033 191.7 8.49677 191.092C5.79026 190.484 3.4308 189.092 1.83975 187.166C1.51942 186.775 2.23162 186.341 2.55237 186.733C4.02998 188.529 6.22799 189.825 8.74968 190.387C11.2714 190.949 13.9506 190.739 16.3039 189.797C16.8156 189.593 17.1236 190.283 16.6149 190.486Z" fill="white"/>
<path d="M34.5326 204.058C36.5135 199.57 36.3953 194.624 34.2015 190.205C33.9837 189.768 34.8087 189.509 35.0262 189.946C37.2989 194.547 37.4094 199.695 35.3357 204.362C35.1377 204.806 34.3357 204.501 34.5326 204.058Z" fill="white"/>
<path d="M8.11933 170.261C9.19642 170.045 10.1924 169.609 11.0177 168.992C11.843 168.375 12.4719 167.597 12.8478 166.727C13.039 166.28 13.8408 166.587 13.6509 167.03C13.2302 167.99 12.5344 168.849 11.6244 169.532C10.7143 170.215 9.6177 170.702 8.43032 170.949C8.32075 170.981 8.20106 170.976 8.09558 170.936C7.9901 170.896 7.90674 170.824 7.86245 170.735C7.82182 170.644 7.82601 170.543 7.87411 170.454C7.92221 170.365 8.01034 170.296 8.11933 170.261Z" fill="white"/>
<path d="M73.9317 147.628C73.8218 147.909 73.7119 148.191 73.6065 148.478C72.1528 152.271 71.0708 156.156 70.3709 160.096C70.311 160.4 70.2558 160.709 70.2065 161.013C68.6416 170.519 69.2045 180.186 71.8666 189.52C72.93 193.234 74.3303 196.875 76.0554 200.411C78.4381 205.295 81.4871 210.432 81.7891 215.537C81.8278 216.069 81.827 216.603 81.7866 217.136L56.4227 234.24C56.3416 234.255 56.265 234.275 56.1837 234.29L55.2084 235.011C55.1042 234.834 55.0006 234.648 54.8964 234.471C54.8354 234.369 54.7801 234.262 54.7191 234.16C54.6803 234.09 54.6416 234.02 54.6018 233.959C54.5888 233.936 54.576 233.913 54.5676 233.895C54.5278 233.834 54.4986 233.774 54.4634 233.717C53.8812 232.681 53.3067 231.639 52.74 230.593C52.7353 230.588 52.7353 230.588 52.7363 230.579C48.4422 222.593 44.909 214.238 43.0072 205.701C42.9501 205.444 42.888 205.183 42.8425 204.918C42.0108 201.066 41.5577 197.164 41.4876 193.25C41.4575 191.107 41.5574 188.964 41.7868 186.829C42.3924 181.314 44.0334 175.913 46.6495 170.824C51.8665 160.68 60.9119 152.041 73.0041 147.934C73.3135 147.829 73.6176 147.728 73.9317 147.628Z" fill="#E6E6E6"/>
<path d="M74.1347 147.935C63.5309 158.546 57.202 171.677 56.0468 185.463C55.7351 188.427 55.9849 191.413 56.7871 194.312C57.6779 197.115 59.4516 199.668 61.9239 201.705C64.1833 203.643 66.7633 205.407 68.419 207.77C69.245 208.99 69.7528 210.342 69.909 211.738C70.0652 213.133 69.8663 214.54 69.3254 215.867C68.0806 219.202 65.4746 221.964 62.8137 224.592C59.8593 227.509 56.7352 230.501 55.5814 234.292C55.4417 234.751 54.5961 234.543 54.7357 234.084C56.743 227.489 64.1901 223.567 67.577 217.582C69.1573 214.79 69.7392 211.583 68.0386 208.729C66.5515 206.234 63.8928 204.413 61.5848 202.467C59.1381 200.509 57.303 198.081 56.2396 195.395C55.2631 192.539 54.8759 189.566 55.0944 186.601C55.459 179.922 57.0794 173.332 59.8963 167.072C63.0637 159.914 67.6747 153.26 73.5297 147.399C73.8923 147.037 74.4949 147.574 74.1347 147.935Z" fill="white"/>
<path d="M56.1058 181.006C53.3615 180.53 50.9092 179.255 49.1868 177.409C47.4643 175.564 46.5839 173.267 46.7028 170.929C46.7087 170.834 46.7587 170.744 46.8422 170.679C46.9258 170.614 47.0363 170.578 47.1506 170.58C47.2649 170.581 47.374 170.62 47.4549 170.687C47.5358 170.755 47.5823 170.846 47.5844 170.941C47.4689 173.118 48.2892 175.257 49.8973 176.973C51.5055 178.69 53.7955 179.869 56.3541 180.3C56.9099 180.394 56.6585 181.099 56.1058 181.006Z" fill="white"/>
<path d="M60.6232 200.848C65.4417 198.261 68.9147 194.252 70.3498 189.621C70.4915 189.162 71.3371 189.37 71.1956 189.828C69.6914 194.645 66.067 198.81 61.0457 201.494C60.5669 201.75 60.147 201.103 60.6232 200.848Z" fill="white"/>
<path d="M63.9089 160.588C64.9247 160.956 66.0344 161.109 67.1383 161.031C68.2421 160.953 69.3056 160.648 70.2331 160.142C70.7078 159.882 71.1272 160.529 70.6556 160.788C69.6277 161.343 68.4528 161.679 67.2334 161.767C66.0141 161.855 64.7874 161.693 63.6606 161.294C63.5506 161.263 63.4585 161.199 63.403 161.115C63.3475 161.03 63.3328 160.931 63.3619 160.837C63.3953 160.744 63.4715 160.665 63.5739 160.618C63.6764 160.572 63.7967 160.561 63.9089 160.588Z" fill="white"/>
<path d="M205.255 57.558C220.678 57.558 233.181 47.1206 233.181 34.2453C233.181 21.37 220.678 10.9326 205.255 10.9326C189.832 10.9326 177.329 21.37 177.329 34.2453C177.329 47.1206 189.832 57.558 205.255 57.558Z" fill="#FF6584"/>
<path d="M290.759 33.0288C288.243 30.8096 285.586 28.7045 282.8 26.7223C277.36 22.871 271.337 19.5961 264.624 17.5332C262.096 16.754 259.484 16.18 256.825 15.8193C256.505 15.7762 256.191 15.733 255.871 15.6977C255.848 15.6957 255.824 15.6957 255.801 15.6977C255.751 15.6861 255.701 15.6782 255.65 15.6742C254.997 15.6036 254.344 15.5487 253.686 15.5095C250.144 15.3129 246.587 15.5802 243.144 16.3017C241.146 16.7225 239.197 17.2894 237.318 17.996C235.437 18.7651 233.612 19.6282 231.855 20.5805C230.911 21.0591 229.939 21.4976 228.942 21.8944C226.032 23.0455 222.951 23.8685 219.781 24.3417C217.64 24.6623 215.472 24.8406 213.297 24.8751C211.409 24.9064 209.628 24.9613 207.838 25.53C205.928 26.1292 204.212 27.0932 202.828 28.3448C201.443 29.5965 200.429 31.1012 199.866 32.7385C199.821 32.8839 199.834 33.0374 199.901 33.1764C199.969 33.3155 200.088 33.4328 200.241 33.5111C200.725 33.8014 201.195 34.1308 201.707 34.3897C202.159 34.5618 202.641 34.6718 203.135 34.7152C203.943 34.8564 204.753 34.9937 205.564 35.127C208.548 35.6212 211.543 36.0591 214.552 36.4408C220.603 37.2056 226.688 37.7442 232.808 38.0567C232.846 38.0612 232.883 38.0639 232.921 38.0645C239.835 38.4129 246.766 38.4692 253.686 38.2332C254.734 38.1979 255.777 38.1547 256.825 38.1037C261.189 37.8998 265.543 37.5782 269.885 37.1389C273.902 36.7311 277.903 36.2251 281.889 35.6212C284.736 35.1898 287.572 34.7087 290.397 34.1779C290.534 34.144 290.659 34.0811 290.758 33.9954C290.858 33.9097 290.929 33.8039 290.966 33.6884C291.002 33.5729 291.002 33.4515 290.966 33.3359C290.93 33.2204 290.858 33.1146 290.759 33.0288Z" fill="#E6E6E6"/>
<path d="M232.714 64.1141C228.671 60.5036 224.217 57.2304 219.414 54.3406C217.821 53.4072 216.182 52.5287 214.495 51.7246C212.427 50.7282 210.28 49.8516 208.068 49.1009C207.575 48.9322 207.077 48.7714 206.579 48.6185C203.75 47.7437 200.815 47.1283 197.827 46.783C197.803 46.7791 197.78 46.783 197.756 46.7791C197.709 46.7713 197.657 46.7634 197.61 46.7556C196.162 46.5987 194.702 46.524 193.241 46.532C192.194 46.532 191.141 46.5791 190.098 46.6654C188.413 46.8039 186.743 47.0451 185.1 47.387C184.287 47.5557 183.479 47.7517 182.685 47.9753C181.527 48.2934 180.39 48.6626 179.279 49.0813C179.26 49.0891 179.246 49.093 179.227 49.1009C177.362 49.8626 175.554 50.7192 173.815 51.6658C173.777 51.6854 173.735 51.705 173.697 51.7246C171.722 52.7113 169.631 53.5287 167.458 54.1641C165.593 54.7086 163.68 55.1309 161.736 55.427C159.596 55.7484 157.427 55.9255 155.253 55.9564C153.364 55.9878 151.584 56.0427 149.798 56.6153C147.887 57.2144 146.171 58.1783 144.786 59.4299C143.401 60.6815 142.385 62.1862 141.821 63.8238C141.778 63.9693 141.791 64.1224 141.858 64.2613C141.926 64.4002 142.044 64.5176 142.197 64.5965C142.681 64.8867 143.155 65.2122 143.663 65.4711C144.114 65.6445 144.597 65.7545 145.091 65.7966C145.899 65.9378 146.707 66.079 147.52 66.2123C150.503 66.7065 153.5 67.1431 156.512 67.5222C160.642 68.0438 164.788 68.4609 168.952 68.7733C170.926 68.9263 172.9 69.0518 174.877 69.1498C179.946 69.4047 185.02 69.5041 190.098 69.4479C191.146 69.4361 192.194 69.4165 193.241 69.3891C199.462 69.2361 205.663 68.8465 211.846 68.2203C218.737 67.5243 225.582 66.536 232.353 65.2593C232.49 65.2258 232.614 65.1633 232.713 65.0779C232.813 64.9925 232.884 64.8871 232.921 64.7719C232.957 64.6567 232.957 64.5356 232.921 64.4203C232.885 64.3051 232.814 64.1996 232.714 64.1141Z" fill="#E6E6E6"/>
<path d="M163.106 1.5478L187.708 285.362L138.504 289.008V5.15872C144.367 1.33543 152.784 0.737271 163.106 1.5478Z" fill="#CCCCCC"/>
<path d="M284.547 1.5478L259.945 285.362L309.149 289.008V5.15872C303.286 1.33543 294.87 0.737271 284.547 1.5478Z" fill="#CCCCCC"/>
<path d="M310.307 5.28258C308.78 2.15747 305.534 0 301.78 0H145.349C140.129 0 135.887 4.18069 135.887 9.32437V291.413C135.842 294.022 137.01 296.545 139.148 298.45C140.266 299.43 141.682 300.139 143.244 300.501C143.93 300.659 144.638 300.739 145.349 300.737H301.78C302.491 300.739 303.199 300.659 303.885 300.501C308.094 299.556 311.242 295.843 311.242 291.413V9.32438C311.246 7.93932 310.929 6.56671 310.307 5.28258ZM308.104 291.413C308.104 294.848 305.266 297.644 301.78 297.644H145.349C142.46 297.644 140.012 295.723 139.265 293.107C139.105 292.552 139.025 291.983 139.025 291.413V9.32438C139.025 5.88909 141.863 3.09734 145.349 3.09734H301.78C302.422 3.09692 303.058 3.19257 303.659 3.37975C306.229 4.16682 308.104 6.53264 308.104 9.32438V291.413Z" fill="#CCCCCC"/>
<path d="M309.673 85.7451H137.457V88.3669H309.673V85.7451Z" fill="#CCCCCC"/>
<path d="M309.673 31.6223H137.457V34.2442H309.673V31.6223Z" fill="#CCCCCC"/>
<path d="M309.673 129.443H137.457V132.065H309.673V129.443Z" fill="#CCCCCC"/>
<path d="M193.343 1.17657H190.202V166.586H193.343V1.17657Z" fill="#CCCCCC"/>
<path d="M256.928 1.17657H253.787V166.586H256.928V1.17657Z" fill="#CCCCCC"/>
<path d="M329.301 284.351H123.061C119.315 284.355 115.723 285.599 113.074 287.811C110.424 290.022 108.934 293.021 108.93 296.148C108.928 297.653 109.274 299.143 109.949 300.537C110.998 302.724 112.808 304.599 115.145 305.92C117.482 307.242 120.239 307.948 123.061 307.95H329.301C331.768 307.949 334.192 307.409 336.332 306.384C338.471 305.359 340.252 303.884 341.497 302.106C341.852 301.603 342.16 301.079 342.418 300.537C343.093 299.143 343.44 297.653 343.438 296.148C343.432 293.02 341.941 290.022 339.291 287.81C336.641 285.599 333.048 284.355 329.301 284.351Z" fill="#CCCCCC"/>
<path d="M309.673 160.468H138.504V169.208H309.673V160.468Z" fill="#CCCCCC"/>
<path d="M222.518 157.846H225.659C227.186 157.846 228.65 158.353 229.73 159.254C230.81 160.156 231.417 161.378 231.417 162.653H216.76C216.76 162.022 216.909 161.397 217.198 160.814C217.488 160.231 217.912 159.701 218.446 159.254C218.981 158.808 219.616 158.454 220.315 158.212C221.013 157.971 221.762 157.846 222.518 157.846Z" fill="#CCCCCC"/>
<path d="M227.108 185.116C245.024 185.116 259.547 172.992 259.547 158.036C259.547 143.08 245.024 130.956 227.108 130.956C209.192 130.956 194.669 143.08 194.669 158.036C194.669 172.992 209.192 185.116 227.108 185.116Z" fill="#FFB8B8"/>
<path d="M190.921 131.985C191.167 128.875 193.63 125.693 201.457 124.03C201.457 124.03 214.889 109.691 233.142 117.21C233.142 117.21 241.991 115.939 248.553 123.604C248.553 123.604 255.059 120.401 257.803 126.078C257.803 126.078 265.433 137.659 262.624 149.471C259.815 161.283 258.378 162.757 258.378 162.757C258.378 162.757 261.958 138.324 241.335 140.018C220.713 141.712 204.109 135.658 199.439 148.914C195.561 159.921 196.049 165.637 196.049 165.637C196.049 165.637 183.081 154.657 187.491 146.011C189.746 141.588 190.543 136.78 190.921 131.985Z" fill="#2F2E41"/>
<path d="M138.894 306.028H318.323C317.123 294.602 316.34 250.926 316.34 248.052C316.34 235.373 303.912 221.537 303.912 221.537L299.464 219.485L262.316 209.809L252.702 199.385C251.696 198.29 250.399 197.405 248.913 196.799C247.427 196.194 245.794 195.884 244.141 195.895L213.772 196.085C211.1 196.102 208.532 196.952 206.571 198.467L187.765 213.031L160.184 224.026L160.137 223.987L159.849 224.166L155.756 226.626L153.123 228.215C153.123 228.215 146.216 235.133 140.696 255.881C139.865 259.002 139.282 299.401 138.894 306.028Z" fill="#1EE29C"/>
<path d="M359.853 300.537C359.421 300.867 358.984 301.192 358.547 301.518C356.893 302.745 355.216 303.952 353.515 305.138C350.945 306.926 348.322 308.661 345.646 310.342H104.1C99.1812 307.259 94.444 303.991 89.8884 300.537H359.853Z" fill="#CCCCCC"/>
<path d="M271.313 302.89H182.52L184.399 295.439H269.434L271.313 302.89Z" fill="#2F2E41"/>
<path d="M351.645 270.73H328.54C328.019 270.729 327.503 270.823 327.03 271.006C326.557 271.189 326.137 271.456 325.801 271.789C325.479 271.737 325.152 271.711 324.824 271.711C324.104 271.71 323.391 271.828 322.725 272.058C322.06 272.287 321.455 272.624 320.945 273.049C320.436 273.474 320.032 273.979 319.756 274.534C319.48 275.089 319.338 275.685 319.338 276.286C319.338 276.887 319.48 277.482 319.756 278.038C320.032 278.593 320.436 279.097 320.945 279.522C321.455 279.947 322.06 280.284 322.725 280.514C323.391 280.743 324.104 280.861 324.824 280.861C325.652 280.861 326.468 280.702 327.211 280.398L327.596 284.351L329.128 299.976C329.2 300.171 329.298 300.359 329.419 300.537C329.728 301.012 330.185 301.408 330.742 301.684C331.298 301.96 331.933 302.106 332.581 302.106H347.605C348.253 302.105 348.888 301.959 349.445 301.683C350.002 301.407 350.46 301.011 350.771 300.537C350.889 300.358 350.985 300.171 351.058 299.976L355.098 274.633C355.265 274.182 355.302 273.704 355.207 273.239C355.111 272.774 354.887 272.334 354.551 271.954C354.215 271.575 353.777 271.266 353.273 271.054C352.768 270.841 352.211 270.73 351.645 270.73ZM324.824 279.555C323.786 279.554 322.791 279.209 322.058 278.596C321.325 277.983 320.913 277.152 320.913 276.286C320.913 275.419 321.325 274.589 322.058 273.976C322.791 273.363 323.786 273.018 324.824 273.017C324.895 273.017 324.96 273.033 325.031 273.036C324.876 273.563 324.896 274.115 325.087 274.633L326.741 279.119C326.159 279.402 325.498 279.552 324.824 279.555Z" fill="#3F3D56"/>
<path d="M299.459 187.809H153.199C151.943 187.811 150.738 188.228 149.85 188.97C148.961 189.712 148.461 190.717 148.459 191.766V274.158C148.46 275.207 148.96 276.213 149.849 276.955C150.738 277.697 151.943 278.114 153.199 278.115H299.459C300.716 278.114 301.921 277.697 302.81 276.955C303.699 276.213 304.198 275.207 304.2 274.158V191.766C304.198 190.717 303.698 189.712 302.809 188.97C301.92 188.228 300.716 187.811 299.459 187.809Z" fill="#3F3D56"/>
<path d="M242.801 253.827H208.585C208.101 253.827 207.637 253.988 207.295 254.275C206.953 254.561 206.761 254.948 206.762 255.352V300.474H244.628V255.352C244.628 255.152 244.581 254.954 244.489 254.768C244.398 254.583 244.263 254.415 244.093 254.273C243.924 254.132 243.722 254.019 243.5 253.943C243.278 253.866 243.041 253.827 242.801 253.827ZM225.808 279.465C224.738 279.46 223.713 279.104 222.956 278.472C222.2 277.84 221.773 276.985 221.768 276.092V270.887C221.769 269.993 222.195 269.136 222.953 268.505C223.71 267.873 224.737 267.518 225.808 267.518C226.879 267.518 227.906 267.873 228.663 268.505C229.421 269.136 229.847 269.993 229.848 270.887V276.092C229.843 276.985 229.416 277.84 228.659 278.472C227.903 279.104 226.878 279.46 225.808 279.465Z" fill="#2F2E41"/>
<path d="M206.644 299.031V303.384C206.645 303.61 206.753 303.826 206.944 303.986C207.135 304.145 207.394 304.235 207.664 304.235H243.726C243.996 304.234 244.255 304.144 244.446 303.985C244.637 303.826 244.744 303.61 244.746 303.384V299.031H206.644Z" fill="#3F3D56"/>
<path d="M296.349 273.297C297.624 273.297 298.658 272.434 298.658 271.369C298.658 270.305 297.624 269.442 296.349 269.442C295.074 269.442 294.04 270.305 294.04 271.369C294.04 272.434 295.074 273.297 296.349 273.297Z" fill="#2F2E41"/>
<path d="M171.663 268.573C171.557 268.573 171.452 268.591 171.354 268.625C171.255 268.659 171.166 268.708 171.091 268.771C171.016 268.834 170.957 268.908 170.916 268.99C170.876 269.072 170.855 269.159 170.855 269.248V272.719C170.855 272.897 170.941 273.069 171.092 273.195C171.244 273.321 171.449 273.392 171.663 273.392C171.877 273.392 172.082 273.321 172.233 273.195C172.385 273.069 172.47 272.897 172.471 272.719V269.248C172.471 269.159 172.45 269.072 172.409 268.99C172.369 268.908 172.309 268.834 172.234 268.771C172.159 268.708 172.07 268.659 171.972 268.625C171.874 268.591 171.769 268.573 171.663 268.573Z" fill="#2F2E41"/>
<path d="M176.051 268.573C175.945 268.573 175.84 268.591 175.742 268.625C175.643 268.659 175.554 268.708 175.479 268.771C175.404 268.834 175.345 268.908 175.304 268.99C175.264 269.072 175.243 269.159 175.243 269.248V272.719C175.243 272.898 175.328 273.069 175.479 273.196C175.631 273.322 175.836 273.393 176.051 273.393C176.265 273.393 176.471 273.322 176.622 273.196C176.774 273.069 176.859 272.898 176.859 272.719V269.248C176.859 269.159 176.838 269.072 176.797 268.99C176.757 268.908 176.697 268.834 176.622 268.771C176.547 268.708 176.458 268.659 176.36 268.625C176.262 268.591 176.157 268.573 176.051 268.573Z" fill="#2F2E41"/>
<path d="M180.439 268.573C180.333 268.573 180.228 268.591 180.13 268.625C180.031 268.659 179.942 268.708 179.867 268.771C179.792 268.834 179.733 268.908 179.692 268.99C179.652 269.072 179.631 269.159 179.631 269.248V272.719C179.631 272.897 179.717 273.069 179.868 273.195C180.02 273.321 180.225 273.392 180.439 273.392C180.653 273.392 180.858 273.321 181.009 273.195C181.161 273.069 181.246 272.897 181.247 272.719V269.248C181.247 269.159 181.226 269.072 181.185 268.99C181.145 268.908 181.085 268.834 181.01 268.771C180.935 268.708 180.846 268.659 180.748 268.625C180.65 268.591 180.545 268.573 180.439 268.573Z" fill="#2F2E41"/>
<path d="M184.827 268.573C184.721 268.573 184.616 268.591 184.517 268.625C184.419 268.659 184.33 268.708 184.255 268.771C184.18 268.834 184.121 268.908 184.08 268.99C184.04 269.072 184.019 269.159 184.019 269.248V272.719C184.019 272.897 184.105 273.069 184.256 273.195C184.408 273.321 184.613 273.392 184.827 273.392C185.041 273.392 185.246 273.321 185.397 273.195C185.549 273.069 185.634 272.897 185.635 272.719V269.248C185.635 269.159 185.614 269.072 185.573 268.99C185.533 268.908 185.473 268.834 185.398 268.771C185.323 268.708 185.234 268.659 185.136 268.625C185.038 268.591 184.933 268.573 184.827 268.573Z" fill="#2F2E41"/>
<path d="M188.328 300.929C195.074 300.929 200.543 296.364 200.543 290.732C200.543 285.101 195.074 280.535 188.328 280.535C181.582 280.535 176.113 285.101 176.113 290.732C176.113 296.364 181.582 300.929 188.328 300.929Z" fill="#FFB8B8"/>
<path d="M273.662 302.89C280.408 302.89 285.877 298.325 285.877 292.693C285.877 287.062 280.408 282.496 273.662 282.496C266.916 282.496 261.447 287.062 261.447 292.693C261.447 298.325 266.916 302.89 273.662 302.89Z" fill="#FFB8B8"/>
<path d="M399.742 169.612C398.535 167.945 397.105 166.166 394.865 165.622C392.271 164.992 389.606 166.243 387.346 167.479C380.586 171.173 374.077 175.177 367.847 179.472L367.854 179.537C372.704 179.258 376.729 190.024 381.579 189.744C385.084 189.543 389.533 178.268 392.63 176.884C393.805 176.359 394.951 175.657 396.282 175.609C397.937 175.548 399.379 176.512 400.513 177.52C407.219 183.481 409.159 192.597 416.682 197.835C411.938 188.068 406.274 178.631 399.742 169.612Z" fill="#3F3D56"/>
<path d="M412.65 184.091C416.187 189.425 419.939 194.653 423.906 199.775V199.779C423.883 199.959 423.85 200.139 423.817 200.32C423.338 199.708 422.863 199.094 422.393 198.477C418.832 193.813 415.448 189.061 412.241 184.22C410.719 181.918 409.234 179.598 407.787 177.259C406.669 175.447 405.574 173.625 404.503 171.792C404.198 171.266 403.902 170.741 403.606 170.211C402.91 168.972 402.225 167.725 401.492 166.501C400.655 165.105 399.636 163.646 398.1 162.708C397.401 162.264 396.565 161.995 395.69 161.932C394.456 161.938 393.249 162.227 392.199 162.767C384.252 166.255 376.834 170.525 370.104 175.486C363.366 180.428 357.343 186.01 352.157 192.119C351.998 192.307 351.622 192.127 351.781 191.935C352.416 191.19 353.055 190.456 353.712 189.727C361.864 180.677 371.859 172.895 383.24 166.736C385.152 165.701 387.101 164.714 389.089 163.775C390.089 163.301 391.095 162.834 392.119 162.395C393.099 161.915 394.199 161.63 395.332 161.563C399.232 161.512 401.252 165.199 402.638 167.678C403.07 168.458 403.51 169.237 403.958 170.015C405.645 172.956 407.397 175.874 409.215 178.769C410.333 180.553 411.478 182.327 412.65 184.091Z" fill="#3F3D56"/>
<path d="M369.72 173.665C369.494 173.455 369.269 173.244 369.041 173.033C367.243 171.373 365.314 169.733 362.845 168.781C361.668 168.313 360.383 168.065 359.08 168.053C357.734 168.083 356.408 168.325 355.17 168.764C354.581 168.961 354.005 169.184 353.438 169.421C352.79 169.693 352.154 169.983 351.521 170.276C350.332 170.825 349.158 171.399 348 171.996C345.696 173.185 343.464 174.464 341.304 175.835C340.185 176.545 339.088 177.279 338.015 178.036C337.016 178.74 336.038 179.462 335.08 180.203C334.875 180.361 334.569 180.106 334.774 179.948C335.027 179.751 335.282 179.556 335.537 179.364C336.259 178.819 336.992 178.285 337.736 177.762C339.094 176.805 340.487 175.886 341.915 175.003C344.135 173.63 346.432 172.35 348.805 171.164C349.991 170.571 351.194 170.003 352.412 169.461C352.78 169.297 353.153 169.137 353.529 168.985C354.384 168.625 355.271 168.323 356.184 168.083C357.477 167.734 358.844 167.621 360.194 167.754C361.496 167.912 362.752 168.275 363.893 168.822C366.317 169.953 368.197 171.702 370.026 173.409C370.211 173.582 369.907 173.839 369.72 173.665Z" fill="#3F3D56"/>
<path d="M351.983 181.651C351.367 181.676 350.758 181.531 350.251 181.237C348.91 180.389 348.945 178.351 350.359 175.007C350.744 174.101 351.347 173.271 352.131 172.567C352.915 171.864 353.864 171.302 354.919 170.916C355.907 170.547 356.976 170.354 358.058 170.349C359.141 170.343 360.212 170.526 361.206 170.885C361.379 170.948 361.55 171.015 361.719 171.087C362.868 171.625 363.946 172.263 364.933 172.991C365.773 173.599 366.668 174.151 367.611 174.642L367.926 174.796L367.627 174.972C360.017 179.444 354.857 181.651 351.983 181.651Z" fill="#3F3D56"/>
<path d="M381.248 155.033C378.745 155.033 376.32 154.308 374.387 152.981C372.454 151.655 371.132 149.809 370.647 147.76C368.554 148.114 366.634 148.977 365.129 150.24C363.623 151.504 362.6 153.112 362.188 154.861C361.776 156.609 361.994 158.421 362.814 160.066C363.634 161.712 365.02 163.117 366.796 164.106C368.572 165.095 370.66 165.622 372.794 165.622C374.929 165.621 377.016 165.093 378.792 164.103C380.567 163.113 381.952 161.707 382.77 160.061C383.589 158.415 383.806 156.603 383.392 154.855C382.686 154.974 381.968 155.033 381.248 155.033Z" fill="#3F3D56"/>
<path opacity="0.74" d="M91.9991 169.544C100.905 169.544 108.124 163.518 108.124 156.083C108.124 148.649 100.905 142.622 91.9991 142.622C83.0935 142.622 75.8741 148.649 75.8741 156.083C75.8741 163.518 83.0935 169.544 91.9991 169.544Z" fill="#3F3D56"/>
<path opacity="0.74" d="M108.124 169.544C117.03 169.544 124.249 163.518 124.249 156.083C124.249 148.649 117.03 142.622 108.124 142.622C99.2184 142.622 91.9991 148.649 91.9991 156.083C91.9991 163.518 99.2184 169.544 108.124 169.544Z" fill="#1EE29C"/>
<path opacity="0.74" d="M100.198 158.816C109.103 158.816 116.323 152.789 116.323 145.355C116.323 137.921 109.103 131.894 100.198 131.894C91.2923 131.894 84.073 137.921 84.073 145.355C84.073 152.789 91.2923 158.816 100.198 158.816Z" fill="#FF6584"/>
<path d="M142.363 141.498L100.944 152.36L101.226 153.108L142.644 142.246L142.363 141.498Z" fill="#3F3D56"/>
<path d="M142.626 143.315C143.664 143.315 144.506 142.613 144.506 141.746C144.506 140.88 143.664 140.177 142.626 140.177C141.589 140.177 140.747 140.88 140.747 141.746C140.747 142.613 141.589 143.315 142.626 143.315Z" fill="#3F3D56"/>
<path d="M411.513 212.337C414.266 213.956 416.911 215.608 419.936 216.855C419.88 217.047 419.819 217.243 419.762 217.435C419.391 217.29 419.029 217.137 418.668 216.98C415.6 215.639 412.96 213.815 410.08 212.231C408.652 211.407 407.093 210.755 405.447 210.293C403.732 209.863 401.94 209.688 400.153 209.776C392.697 210.082 386.307 213.796 379.378 215.666C375.986 216.584 372.378 217.074 368.84 216.498C365.302 215.921 362.159 214.353 359.035 212.933C355.953 211.529 352.594 210.117 348.996 210.117C346.064 210.121 342.982 211.101 341.413 213.266C341.364 213.331 341.287 213.377 341.198 213.395C341.109 213.413 341.015 213.402 340.937 213.363C340.858 213.324 340.8 213.261 340.776 213.187C340.752 213.114 340.763 213.035 340.807 212.968C341.158 212.475 341.589 212.025 342.089 211.631C344.138 210.011 347.149 209.372 349.916 209.56C353.496 209.803 356.761 211.215 359.857 212.635C363.141 214.141 366.505 215.76 370.301 216.09C374.05 216.419 377.762 215.6 381.238 214.498C387.971 212.36 394.614 208.799 402.102 209.195C405.635 209.383 408.661 210.662 411.513 212.337Z" fill="#3F3D56"/>
<path d="M116.832 98.9103V99.7064C116.516 99.6543 116.195 99.6281 115.873 99.628H110.959V108.437C110.958 109.741 110.337 110.991 109.233 111.913C108.128 112.836 106.63 113.354 105.068 113.355H97.8046V114.712C97.8046 115.256 97.934 115.794 98.1852 116.296H97.1798C96.9697 115.786 96.8633 115.251 96.865 114.712V113.355H92.8717V112.57H96.865V103.762C96.8659 102.458 97.4869 101.207 98.5915 100.285C99.6962 99.3628 101.194 98.8444 102.756 98.8436H110.02V97.4709H110.959V98.8436H115.873C116.194 98.8439 116.515 98.8662 116.832 98.9103Z" fill="#1EE29C"/>
<path d="M105.068 92.5685H91.9508C90.3886 92.5693 88.8907 93.0877 87.786 94.0099C86.6814 94.932 86.0604 96.1825 86.0595 97.4866V108.437C86.0604 109.741 86.6814 110.991 87.786 111.913C88.8907 112.836 90.3886 113.354 91.9508 113.355H105.068C106.63 113.354 108.128 112.836 109.233 111.913C110.337 110.991 110.958 109.741 110.959 108.437V97.471C110.954 96.1695 110.33 94.9229 109.226 94.0041C108.122 93.0853 106.627 92.5691 105.068 92.5685ZM110.02 108.437C110.018 109.533 109.496 110.583 108.567 111.358C107.639 112.133 106.381 112.569 105.068 112.57H91.9508C90.6381 112.569 89.3796 112.133 88.4514 111.358C87.5231 110.583 87.0009 109.533 86.9991 108.437V97.4866C87.0009 96.3908 87.5231 95.3402 88.4514 94.5653C89.3796 93.7904 90.6381 93.3544 91.9508 93.3529H105.068C106.377 93.3542 107.633 93.788 108.561 94.5595C109.489 95.3311 110.013 96.3777 110.02 97.471V108.437Z" fill="#3F3D56"/>
<path d="M96.865 112.57V113.355H97.8046V112.57H96.865ZM96.865 112.57V113.355H97.8046V112.57H96.865ZM116.832 98.9103C116.515 98.8662 116.194 98.8439 115.873 98.8436H102.756C101.194 98.8444 99.6962 99.3628 98.5916 100.285C97.4869 101.207 96.8659 102.458 96.865 103.762V114.712C96.8633 115.251 96.9697 115.786 97.1798 116.296C97.5763 117.268 98.3273 118.112 99.3273 118.71C100.327 119.308 101.526 119.63 102.756 119.63H115.873C117.436 119.629 118.934 119.111 120.038 118.189C121.143 117.266 121.764 116.016 121.765 114.712V103.762C121.764 102.596 121.268 101.469 120.365 100.58C119.461 99.6918 118.209 99.0999 116.832 98.9103ZM120.825 114.712C120.823 115.808 120.301 116.858 119.373 117.633C118.445 118.408 117.186 118.844 115.873 118.846H102.756C101.444 118.844 100.185 118.408 99.257 117.633C98.3288 116.858 97.8065 115.808 97.8046 114.712V103.762C97.8064 102.666 98.3287 101.615 99.2569 100.84C100.185 100.065 101.444 99.6295 102.756 99.628H115.873C117.186 99.6284 118.446 100.064 119.374 100.839C120.303 101.614 120.825 102.666 120.825 103.762V114.712ZM96.865 112.57V113.355H97.8046V112.57H96.865Z" fill="#3F3D56"/>
<path d="M87.5864 214.811H31.8674C31.4796 214.812 31.1076 214.94 30.8329 215.169C30.5582 215.397 30.4031 215.707 30.4017 216.031V218.788C32.2399 224.666 34.4655 230.454 37.0682 236.127H87.5864C87.7783 236.127 87.9684 236.096 88.1457 236.035C88.3231 235.973 88.4842 235.884 88.6199 235.77C88.7557 235.657 88.8633 235.522 88.9366 235.374C89.01 235.226 89.0476 235.068 89.0475 234.907V216.031C89.047 215.708 88.893 215.398 88.619 215.169C88.3451 214.94 87.9737 214.812 87.5864 214.811Z" fill="#1EE29C"/>
<path d="M82.2776 242.249H40.042C40.5447 243.234 41.0568 244.21 41.5877 245.183H82.2776C84.5702 245.21 84.5467 242.222 82.2776 242.249Z" fill="#E4E4E4"/>
<path d="M82.2776 248.971H43.7065C44.2703 249.956 44.8497 250.934 45.4448 251.905H82.2776C84.5702 251.933 84.5467 248.948 82.2776 248.971Z" fill="#E4E4E4"/>
<path d="M82.2776 255.698H47.8174C48.4469 256.682 49.0952 257.659 49.7529 258.631H82.2776C84.5702 258.659 84.5467 255.67 82.2776 255.698Z" fill="#E4E4E4"/>
<path d="M371.138 74.9099H370.871C371.704 74.9105 372.526 75.0728 373.271 75.3838H372.053C370.74 75.3851 369.481 75.821 368.553 76.5959C367.625 77.3708 367.103 78.4215 367.101 79.5174V90.4678C367.103 91.5637 367.625 92.6143 368.553 93.3893C369.481 94.1642 370.74 94.6001 372.053 94.6013H372.829C372.205 94.8057 371.541 94.911 370.871 94.9118H371.138C372.576 94.9104 373.954 94.4331 374.97 93.5847C375.986 92.7363 376.558 91.5859 376.56 90.386V79.4356C376.558 78.2358 375.986 77.0854 374.97 76.237C373.954 75.3886 372.576 74.9113 371.138 74.9099Z" fill="#3F3D56"/>
<path opacity="0.21" d="M371.138 74.9099H370.871C371.704 74.9105 372.526 75.0728 373.271 75.3838H372.053C370.74 75.3851 369.481 75.821 368.553 76.5959C367.625 77.3708 367.103 78.4215 367.101 79.5174V90.4678C367.103 91.5637 367.625 92.6143 368.553 93.3893C369.481 94.1642 370.74 94.6001 372.053 94.6013H372.829C372.205 94.8057 371.541 94.911 370.871 94.9118H371.138C372.576 94.9104 373.954 94.4331 374.97 93.5847C375.986 92.7363 376.558 91.5859 376.56 90.386V79.4356C376.558 78.2358 375.986 77.0854 374.97 76.237C373.954 75.3886 372.576 74.9113 371.138 74.9099Z" fill="black"/>
<path d="M336.373 74.9099H336.105C336.938 74.9105 337.76 75.0728 338.505 75.3838H337.287C335.974 75.3851 334.716 75.821 333.787 76.5959C332.859 77.3708 332.337 78.4215 332.335 79.5174V90.4678C332.337 91.5637 332.859 92.6143 333.787 93.3893C334.716 94.1642 335.974 94.6001 337.287 94.6013H338.064C337.44 94.8057 336.775 94.911 336.105 94.9118H336.373C337.81 94.9104 339.188 94.4331 340.204 93.5847C341.221 92.7363 341.792 91.5859 341.794 90.386V79.4356C341.792 78.2358 341.221 77.0854 340.204 76.237C339.188 75.3886 337.81 74.9113 336.373 74.9099Z" fill="#1EE29C"/>
<path opacity="0.21" d="M336.373 74.9099H336.105C336.938 74.9105 337.76 75.0728 338.505 75.3838H337.287C335.974 75.3851 334.716 75.821 333.787 76.5959C332.859 77.3708 332.337 78.4215 332.335 79.5174V90.4678C332.337 91.5637 332.859 92.6143 333.787 93.3893C334.716 94.1642 335.974 94.6001 337.287 94.6013H338.064C337.44 94.8057 336.775 94.911 336.105 94.9118H336.373C337.81 94.9104 339.188 94.4331 340.204 93.5847C341.221 92.7363 341.792 91.5859 341.794 90.386V79.4356C341.792 78.2358 341.221 77.0854 340.204 76.237C339.188 75.3886 337.81 74.9113 336.373 74.9099Z" fill="black"/>
<path d="M337.339 94.6354C336.027 94.6342 334.768 94.1983 333.84 93.4234C332.912 92.6484 332.389 91.5978 332.388 90.5019V79.5515C332.389 78.4556 332.912 77.4049 333.84 76.63C334.768 75.8551 336.027 75.4192 337.339 75.4179H338.558C337.812 75.1069 336.991 74.9446 336.157 74.944H323.04C321.603 74.9454 320.225 75.4226 319.208 76.2711C318.192 77.1195 317.62 78.2699 317.619 79.4697V90.4201C317.62 91.62 318.192 92.7704 319.208 93.6188C320.225 94.4672 321.603 94.9445 323.04 94.9459H336.157C336.828 94.9451 337.492 94.8398 338.116 94.6354L337.339 94.6354Z" fill="#1EE29C"/>
<path d="M372.105 94.6354C370.792 94.6342 369.534 94.1983 368.605 93.4234C367.677 92.6484 367.155 91.5978 367.154 90.5019V79.5515C367.155 78.4556 367.677 77.4049 368.605 76.63C369.534 75.8551 370.792 75.4192 372.105 75.4179H373.323C372.578 75.1069 371.756 74.9446 370.923 74.944H357.806C356.368 74.9454 354.99 75.4226 353.974 76.2711C352.958 77.1195 352.386 78.2699 352.384 79.4697V90.4201C352.386 91.62 352.958 92.7704 353.974 93.6188C354.99 94.4672 356.368 94.9445 357.806 94.9459H370.923C371.593 94.9451 372.258 94.8398 372.882 94.6354L372.105 94.6354Z" fill="#3F3D56"/>
<path d="M387.595 77.6691C392.409 83.1978 396.813 88.9673 400.782 94.9452H392.57C391.133 94.9435 389.755 94.466 388.739 93.6177C387.722 92.7693 387.151 91.6191 387.148 90.4193V79.4693C387.148 78.85 387.3 78.2373 387.595 77.6691Z" fill="#FF6584"/>
<path d="M371.128 100.691L366.533 94.9452L363.174 90.7448C362.978 90.4995 362.703 90.3055 362.38 90.1855C362.058 90.0654 361.701 90.0241 361.351 90.0664C361.002 90.1086 360.674 90.2328 360.405 90.4243C360.137 90.6159 359.938 90.8671 359.834 91.1488L358.42 94.9452L355.573 102.573C355.46 102.877 355.462 103.203 355.576 103.506C355.691 103.809 355.914 104.076 356.215 104.271C356.517 104.466 356.882 104.579 357.262 104.596C357.643 104.613 358.02 104.533 358.345 104.366L359.355 103.844C359.558 103.739 359.79 103.68 360.029 103.671C360.267 103.662 360.505 103.704 360.718 103.794C360.932 103.883 361.115 104.016 361.249 104.181C361.384 104.345 361.466 104.536 361.488 104.734L362.413 113.167C362.457 113.554 362.671 113.914 363.015 114.176C363.359 114.439 363.808 114.585 364.274 114.586C364.33 114.586 364.386 114.582 364.447 114.578L365.866 114.473C366.111 114.454 366.349 114.395 366.567 114.3C366.784 114.204 366.977 114.074 367.134 113.916C367.291 113.759 367.409 113.577 367.482 113.381C367.555 113.185 367.58 112.979 367.558 112.774L366.604 104.068C366.581 103.863 366.624 103.657 366.727 103.471C366.83 103.284 366.99 103.124 367.191 103.005C367.392 102.887 367.626 102.814 367.872 102.796C368.117 102.777 368.363 102.813 368.586 102.899L368.793 102.977C369.163 103.12 369.579 103.157 369.977 103.084C370.375 103.011 370.733 102.831 370.998 102.572C371.262 102.313 371.418 101.989 371.441 101.65C371.465 101.31 371.355 100.973 371.128 100.691Z" fill="#CCCCCC"/>
</g>
<defs>
<clipPath id="clip0_1_219">
<rect width="424" height="344" fill="white"/>
</clipPath>
</defs>
</svg>
